# xmcd CD database file
#
# Track frame offsets:
#	150
#	19940
#	36495
#	56740
#	79335
#	99627
#	118790
#	135770
#	155205
#	176162
#	193440
#	212250
#	226745
#	242342
#	257487
#
# Disc length: 3649 seconds
#
# Revision: 2
# Processed by: cddbd v1.5.2PL0 Copyright (c) Steve Scherf et al.
# Submitted via: CDex 1.70beta2
#
DISCID=cd0e3f0f
DTITLE=The Nab's - Gooddays Sunnydays
DYEAR=2003
DGENRE=JPop
TTITLE0=恋の通学電車
TTITLE1=太陽の誘惑
TTITLE2=夏恋
TTITLE3=夏のタクラミ
TTITLE4=蝉のような恋
TTITLE5=七夕の夜に
TTITLE6=湘南純情!
TTITLE7=夏の日の想い出
TTITLE8=R134 ～恋に落ちた海岸線～
TTITLE9=青い経験
TTITLE10=真珠の涙
TTITLE11=ワン!ツー!スリー!フォー!
TTITLE12=Crying in the rain
TTITLE13=STORMY LOVE (Acoustic Version)
TTITLE14=横須賀物語
EXTD=YEAR: 2003
EXTT0=
EXTT1=
EXTT2=
EXTT3=
EXTT4=
EXTT5=
EXTT6=
EXTT7=
EXTT8=
EXTT9=
EXTT10=
EXTT11=
EXTT12=
EXTT13=
EXTT14=
PLAYORDER=
